<?xml version="1.0" encoding="utf-8"?>
<!-- Generator: Adobe Illustrator 18.1.1, SVG Export Plug-In . SVG Version: 6.00 Build 0)  -->
<svg version="1.1" baseProfile="tiny" xmlns="http://www.w3.org/2000/svg" xmlns:xlink="http://www.w3.org/1999/xlink" x="0px"
	 y="0px" viewBox="0 0 100 100" xml:space="preserve">
<g id="Ebene_2">
	<g>
		<path fill="#161616" d="M69.4,33.4c-8.5,0-15.3,6.9-15.3,15.3S60.9,64,69.4,64s15.3-6.9,15.3-15.3S77.8,33.4,69.4,33.4z
			 M69.4,59.6c-6,0-10.9-4.9-10.9-10.9s4.9-10.9,10.9-10.9c6,0,10.9,4.9,10.9,10.9S75.4,59.6,69.4,59.6z"/>
		<rect x="65" y="31.2" fill="#161616" width="8.7" height="4.4"/>
		
			<rect x="54.2" y="35.7" transform="matrix(0.7071 -0.7071 0.7071 0.7071 -9.6371 52.4955)" fill="#161616" width="8.7" height="4.4"/>
		<rect x="51.9" y="44.3" fill="#161616" width="4.4" height="8.7"/>
		
			<rect x="54.2" y="57.3" transform="matrix(-0.7071 -0.7071 0.7071 -0.7071 57.8502 143.0332)" fill="#161616" width="8.7" height="4.4"/>
		<rect x="65" y="61.8" fill="#161616" width="8.7" height="4.4"/>
		
			<rect x="75.8" y="57.3" transform="matrix(-0.7071 0.7071 -0.7071 -0.7071 179.0126 44.9204)" fill="#161616" width="8.7" height="4.4"/>
		<rect x="82.5" y="44.3" fill="#161616" width="4.4" height="8.7"/>
		
			<rect x="75.8" y="35.7" transform="matrix(0.7071 0.7071 -0.7071 0.7071 50.275 -45.6165)" fill="#161616" width="8.7" height="4.4"/>
	</g>
	<g>
		<path fill="#161616" d="M55,19.6c-6,0-10.9,4.9-10.9,10.9S49,41.5,55,41.5s10.9-4.9,10.9-10.9S61,19.6,55,19.6z M55,38.4
			c-4.3,0-7.8-3.5-7.8-7.8s3.5-7.8,7.8-7.8s7.8,3.5,7.8,7.8S59.3,38.4,55,38.4z"/>
		<rect x="51.9" y="18.1" fill="#161616" width="6.2" height="3.1"/>
		
			<rect x="44.1" y="21.3" transform="matrix(0.7071 -0.7071 0.7071 0.7071 -2.3126 40.1154)" fill="#161616" width="6.2" height="3.1"/>
		<rect x="42.5" y="27.5" fill="#161616" width="3.1" height="6.2"/>
		
			<rect x="44.1" y="36.8" transform="matrix(-0.7071 -0.7071 0.7071 -0.7071 53.5948 98.8336)" fill="#161616" width="6.2" height="3.1"/>
		<rect x="51.9" y="40" fill="#161616" width="6.2" height="3.1"/>
		
			<rect x="59.6" y="36.8" transform="matrix(-0.7071 0.7071 -0.7071 -0.7071 134.1879 21.0508)" fill="#161616" width="6.2" height="3.1"/>
		<rect x="64.4" y="27.5" fill="#161616" width="3.1" height="6.2"/>
		
			<rect x="59.6" y="21.3" transform="matrix(0.7071 0.7071 -0.7071 0.7071 34.5302 -37.6669)" fill="#161616" width="6.2" height="3.1"/>
	</g>
	<rect x="142.5" y="85" fill="#333333" stroke="#141414" stroke-width="0.1" stroke-miterlimit="10" width="0" height="0"/>
</g>
<g id="Ebene_1">
	<circle fill="#333333" cx="50" cy="50" r="25"/>
	<path fill="#D2B115" d="M74.3,44.1l-1.4-0.1L72,43.4l0.8-3.1l-1.2-1.2L70,40.1l0.9,1.4L70,44h-1.7l-0.4-1.2l-2,0.7l-1.1,2.4
		l-4.1,0.6L58,46.4l-0.7-1l0.8-1.7L57,42.5l0.3-1.7l2.1-2.2l0.3-3.1l0.8-2.3l-3.9-3.8c0,0-5.7-1.4-5.9-1.3c-0.3,0.1-4.7,0.6-4.7,0.6
		L45,28.1l4.3-3.1C35.8,25.4,25,36.5,25,50c0,6.9,2.8,13.2,7.4,17.8c-0.5-1.7-1.8-3.6-1.8-3.6l0.1-2.8l-1-2.5l0.6-2.8l1.2-1.6
		l3.1,0.4l1.1,1.2l2.3,1.7l0.8,3.3l5.1,1.4l0.9,1.6l2.8,0.8l0.2,1.4l-1.6,1L45,67.9v1.6l-3.6,1.8l-1,1.9c2.5,1,5.3,1.7,8.1,1.8
		l1.7-1.7l4.8-1.6l4.8,0.3l1,0.6c1.6-0.8,3.1-1.7,4.5-2.7l-0.6-1.3l2.9-5.9l-1.1-2.6l-0.1-2.1l-1.5,0l-3.4-0.1l-1.2-2.4l-1.1-1.8
		l0.3-2.8l-0.4-1.9l2.3-1.3l2.9-0.5l2.3,1.4l1.7-0.3l0.8-1.4c0,0,3.6-0.9,3.8-0.9s1.9,1.2,1.9,1.2s0,0,0,0
		C74.7,46,74.5,45,74.3,44.1z M47.3,46.4L43,47.1l-0.1,1.5l-2.7,0.7L38,48.5l-1.4-0.2L36,47.6l-2.8-0.4l-1.2,2V52l-0.8,2.5l0,0.1
		l-0.1,0.2l0.1-0.4l0.3-2.3l-1.6-3.5l-1.3-5.2l1.5-5.7l4-2.6l3.1-2.3l1.3-3.7l1.8,0.3l2-0.3l1,1.2c0,0,0.1,2.2,0.3,2.2l-0.1,2.6
		l2.8,1.6l-0.9,1.8l-2.8,0.3l-1.5-0.2l-0.5,2.1l2,1.6c0,0,2.4-1.9,2.5-2.1s2.6,1,2.6,1l1.2,2.8L47.3,46.4z"/>
</g>
</svg>
