<?xml version="1.0" encoding="utf-8"?>
<!-- Generator: Adobe Illustrator 18.1.1, SVG Export Plug-In . SVG Version: 6.00 Build 0)  -->
<svg version="1.1" baseProfile="tiny" id="Ebene_1" xmlns="http://www.w3.org/2000/svg" xmlns:xlink="http://www.w3.org/1999/xlink"
	 x="0px" y="0px" viewBox="0 0 100 100" xml:space="preserve">
<path fill="#333333" d="M72,48c0,11.6-9.4,21-21,21s-21-9.4-21-21c0-11.6,9.4-21,21-21V15.4C33,15.4,18.4,30,18.4,48
	c0,13,7.6,24.2,18.6,29.4C39.7,73,44.5,70,50,70c5.8,0,10.8,3.3,13.3,8.2C75.2,73.3,83.6,61.6,83.6,48H72z"/>
<path fill="#333333" d="M72,48c0,11.6-9.4,21-21,21s-21-9.4-21-21c0-11.6,9.4-21,21-21V15.4C33,15.4,18.4,30,18.4,48
	c0,13,7.6,24.2,18.6,29.4C39.7,73,44.5,70,50,70c5.8,0,10.8,3.3,13.3,8.2C75.2,73.3,83.6,61.6,83.6,48H72z"/>
<circle fill="#333333" cx="50" cy="84" r="10"/>
<path fill="#333333" d="M66,47c0,0,0,0.5,0,0.8c0,8.3-6.7,15-15.1,15c-8.3,0-15.1-6.8-15.1-15.1c0-8.3,6.4-15.1,14.8-15.1
	c0.2,0,0.3,0,0.3,0v-3.9c0,0-0.1,0-0.3,0c-10.5,0-18.9,8.5-18.9,19s8.6,19,19.1,19c10.5,0,19-8.4,19-18.9c0-0.3,0-0.8,0-0.8H66z"/>
</svg>
