<?xml version="1.0" encoding="utf-8"?>
<!-- Generator: Adobe Illustrator 18.1.1, SVG Export Plug-In . SVG Version: 6.00 Build 0)  -->
<svg version="1.1" id="Ebene_1" xmlns="http://www.w3.org/2000/svg" xmlns:xlink="http://www.w3.org/1999/xlink" x="0px" y="0px"
	 viewBox="0 0 500 500" enable-background="new 0 0 500 500" xml:space="preserve">
<path opacity="0.23" fill="#333333" d="M354.3,230.8c0,54-43.7,97.7-97.7,97.7s-97.7-43.7-97.7-97.7s43.7-97.7,97.7-97.7v-54
	c-83.7,0-151.7,67.9-151.7,151.7c0,60.5,35.4,112.6,86.5,136.8c12.6-20.5,34.9-34.4,60.5-34.4c27,0,50.2,15.4,61.9,38.2
	c55.4-22.8,94.4-77.2,94.4-140.5H354.3z"/>
<path opacity="0.23" fill="#333333" d="M354.3,230.8c0,54-43.7,97.7-97.7,97.7s-97.7-43.7-97.7-97.7s43.7-97.7,97.7-97.7v-54
	c-83.7,0-151.7,67.9-151.7,151.7c0,60.5,35.4,112.6,86.5,136.8c12.6-20.5,34.9-34.4,60.5-34.4c27,0,50.2,15.4,61.9,38.2
	c55.4-22.8,94.4-77.2,94.4-140.5H354.3z"/>
<circle opacity="0.23" fill="#333333" cx="252" cy="398.3" r="46.5"/>
<path opacity="0.23" fill="#333333" d="M326.4,226.2c0,0,0,2.3,0,3.7c0,38.6-31.2,69.8-70.3,69.8c-38.6,0-70.3-31.6-70.3-70.3
	s29.8-70.3,68.9-70.3c0.9,0,1.4,0,1.4,0V141c0,0-0.5,0-1.4,0c-48.9,0-87.9,39.5-87.9,88.4s40,88.4,88.9,88.4s88.4-39.1,88.4-87.9
	c0-1.4,0-3.7,0-3.7L326.4,226.2L326.4,226.2z"/>
<polygon opacity="0.23" fill="none" stroke="#333333" stroke-width="4" stroke-miterlimit="10" points="292.8,484.9 58.7,408.5 
	7.9,167.6 191.1,3.1 425.1,79.5 476,320.4 "/>
<polygon opacity="0.23" fill="none" stroke="#333333" stroke-width="4" stroke-miterlimit="10" points="169.5,481.1 26.3,280.8 
	128.1,56.7 373.1,32.8 516.3,233.1 414.5,457.2 "/>
<polygon opacity="0.23" fill="none" stroke="#333333" stroke-width="2" stroke-miterlimit="10" points="150.6,483.4 -14.4,300.7 
	61.4,66.4 302.2,14.9 467.1,197.7 391.4,431.9 "/>
</svg>
